<?xml version="1.0" encoding="UTF-8"?>
<svg xmlns="http://www.w3.org/2000/svg" xmlns:xlink="http://www.w3.org/1999/xlink" width="364pt" height="178pt" viewBox="0 0 364 178" version="1.1">
<g id="surface1">
<path style=" stroke:none;fill-rule:nonzero;fill:rgb(37.647059%,33.72549%,26.666667%);fill-opacity:1;" d="M 275.007812 130.113281 C 275.027344 129.96875 275.183594 129.863281 275.496094 129.808594 C 275.972656 129.746094 277.132812 130.113281 278.984375 130.890625 C 280.828125 131.683594 281.757812 132.871094 281.746094 134.496094 C 281.746094 135.074219 281.191406 137.125 279.285156 137.105469 C 277.984375 137.097656 277.355469 136.316406 277.1875 135.953125 C 277.070312 135.6875 277.019531 135.136719 276.957031 134.347656 C 276.886719 133.546875 276.753906 132.945312 276.566406 132.5 C 276.390625 132.066406 276.152344 131.65625 275.886719 131.28125 L 275.195312 130.492188 C 275.050781 130.378906 274.992188 130.253906 275.007812 130.113281 M 289.203125 159.90625 L 271.546875 159.90625 L 271.546875 170.027344 L 289.203125 170.027344 Z M 281.5625 148.398438 L 289.636719 148.398438 L 291.277344 146.367188 C 291.796875 145.734375 292.136719 145.425781 292.304688 145.441406 C 292.460938 145.460938 292.78125 145.675781 293.269531 146.074219 L 295.632812 148.152344 C 296.304688 148.78125 296.632812 149.207031 296.597656 149.4375 C 296.546875 149.640625 296.394531 149.738281 296.164062 149.738281 L 281.5625 149.738281 L 281.5625 158.519531 L 288.867188 158.519531 L 290.027344 157.277344 C 290.453125 156.851562 290.726562 156.628906 290.867188 156.609375 C 291.011719 156.59375 291.339844 156.753906 291.808594 157.082031 L 293.984375 158.617188 L 294.90625 159.308594 C 294.976562 159.382812 294.996094 159.503906 294.960938 159.691406 C 294.925781 159.871094 294.773438 160.109375 294.472656 160.402344 L 293.507812 161.351562 L 293.507812 168.597656 L 293.703125 173.40625 C 293.347656 174.296875 292.382812 174.757812 290.808594 174.792969 C 289.734375 174.863281 289.203125 174.472656 289.203125 173.65625 L 289.203125 171.375 L 271.546875 171.375 L 271.546875 173.550781 C 271.546875 173.984375 271.324219 174.347656 270.871094 174.652344 C 270.421875 174.945312 269.792969 175.066406 268.984375 175.050781 C 268.375 175.050781 267.957031 174.980469 267.746094 174.835938 C 267.542969 174.703125 267.390625 174.472656 267.285156 174.144531 L 267.488281 169.09375 L 267.488281 161.351562 L 267.285156 156.390625 C 267.390625 156.292969 267.472656 156.230469 267.535156 156.210938 C 267.605469 156.195312 267.871094 156.308594 268.355469 156.53125 L 272.226562 158.519531 L 277.355469 158.519531 L 277.355469 143.738281 L 277.160156 139.425781 C 277.25 139.253906 277.355469 139.15625 277.453125 139.121094 L 278.167969 139.328125 L 282.101562 140.160156 C 282.890625 140.363281 283.304688 140.578125 283.332031 140.808594 C 283.339844 141.039062 283.074219 141.351562 282.527344 141.75 L 281.5625 142.488281 Z M 297.234375 138.570312 L 265.070312 138.570312 C 265.035156 138.875 265.027344 139.078125 265.046875 139.175781 C 265.054688 139.273438 265.097656 140.535156 265.160156 142.949219 C 265.222656 145.363281 265.195312 147.785156 265.070312 150.238281 C 264.832031 154.207031 264.308594 157.90625 263.46875 161.351562 C 262.636719 164.789062 260.757812 168.1875 257.863281 171.515625 L 256.457031 173.152344 C 256.226562 173.417969 256.046875 173.601562 255.925781 173.699219 C 255.800781 173.808594 255.675781 173.84375 255.570312 173.824219 C 255.453125 173.808594 255.375 173.78125 255.339844 173.726562 C 255.3125 173.675781 255.339844 173.503906 255.4375 173.203125 L 256.074219 172.164062 L 256.988281 170.425781 C 258.828125 166.988281 259.890625 163.617188 260.183594 160.304688 C 260.46875 157 260.636719 154.683594 260.6875 153.371094 C 260.742188 152.03125 260.757812 150.8125 260.757812 149.6875 L 260.722656 145.726562 C 260.6875 143.171875 260.652344 141.554688 260.617188 140.863281 L 260.226562 135.402344 C 260.191406 134.96875 260.539062 134.921875 261.246094 135.25 L 265.460938 137.230469 L 291.578125 137.230469 L 293.214844 135.25 C 293.738281 134.621094 294.066406 134.320312 294.214844 134.335938 C 294.359375 134.347656 294.6875 134.542969 295.199219 134.90625 L 298.007812 137.179688 C 298.589844 137.675781 298.875 138.039062 298.875 138.277344 C 298.839844 138.484375 298.699219 138.570312 298.441406 138.570312 Z M 228.824219 144.804688 L 228.824219 151.152344 C 228.824219 152.003906 228.871094 152.519531 228.96875 152.679688 C 229.0625 152.847656 229.417969 152.910156 230.03125 152.882812 C 230.507812 152.882812 231.046875 152.765625 231.613281 152.535156 C 232.199219 152.304688 232.589844 152.179688 232.773438 152.179688 C 233.074219 152.261719 233.4375 152.5 233.890625 152.925781 L 233.890625 144.804688 Z M 225.246094 143.429688 L 225.246094 136.140625 L 223.457031 136.140625 C 223.105469 136.671875 222.804688 137.007812 222.546875 137.179688 L 222.546875 143.429688 Z M 233.890625 161.554688 L 215.355469 161.554688 L 215.355469 169.085938 L 233.890625 169.085938 Z M 219.3125 144.804688 L 215.347656 144.804688 L 215.347656 157.535156 C 216.410156 156.085938 217.199219 154.730469 217.691406 153.476562 C 218.1875 152.226562 218.535156 150.972656 218.730469 149.738281 C 218.925781 148.496094 219.109375 146.863281 219.3125 144.804688 M 233.890625 160.164062 L 233.890625 155.5 C 232.925781 156.070312 231.515625 156.355469 229.691406 156.355469 C 227.726562 156.378906 226.550781 156.195312 226.160156 155.777344 C 225.777344 155.367188 225.53125 155.003906 225.414062 154.695312 C 225.300781 154.375 225.246094 154.089844 225.246094 153.832031 L 225.246094 144.804688 L 222.546875 144.804688 C 222.476562 145.140625 222.421875 145.851562 222.371094 146.945312 C 222.324219 148.027344 222.066406 149.242188 221.632812 150.582031 C 221.171875 151.914062 220.492188 153.203125 219.578125 154.417969 C 218.648438 155.644531 217.242188 157.074219 215.347656 158.722656 L 215.347656 160.164062 Z M 233.164062 143.429688 L 234.367188 141.785156 C 234.597656 141.457031 234.785156 141.289062 234.925781 141.269531 C 235.078125 141.253906 235.421875 141.4375 235.964844 141.839844 L 238.523438 143.820312 C 239.167969 144.34375 239.488281 144.652344 239.46875 144.734375 C 239.441406 144.8125 239.265625 144.992188 238.910156 145.257812 L 237.945312 145.957031 L 237.945312 167.292969 L 238.28125 173.285156 C 238.1875 173.71875 238.070312 174.003906 237.917969 174.152344 C 237.769531 174.304688 237.441406 174.480469 236.929688 174.695312 C 236.421875 174.910156 235.804688 174.988281 235.105469 174.917969 C 234.742188 174.917969 234.457031 174.800781 234.226562 174.570312 C 234.003906 174.339844 233.890625 174.074219 233.890625 173.78125 L 233.890625 170.417969 L 215.347656 170.417969 L 215.347656 174.320312 C 215.347656 174.988281 214.984375 175.421875 214.238281 175.617188 C 213.503906 175.8125 212.9375 175.902344 212.546875 175.867188 C 211.964844 175.867188 211.609375 175.601562 211.441406 175.066406 L 211.777344 169.226562 L 211.777344 146.445312 L 211.539062 141.785156 C 211.636719 141.660156 211.707031 141.582031 211.777344 141.5625 C 211.839844 141.554688 212.0625 141.632812 212.449219 141.839844 L 215.347656 143.429688 L 219.3125 143.429688 L 219.3125 136.140625 L 209.414062 136.140625 C 209.023438 136.140625 208.800781 135.917969 208.730469 135.472656 C 208.667969 135.03125 208.898438 134.808594 209.414062 134.808594 L 234.367188 134.808594 L 235.964844 132.578125 C 236.421875 131.949219 236.679688 131.636719 236.734375 131.621094 C 236.804688 131.601562 237.292969 131.949219 238.1875 132.675781 L 241.082031 135.054688 C 241.277344 135.25 241.445312 135.480469 241.59375 135.75 C 241.738281 136.015625 241.507812 136.140625 240.894531 136.140625 L 229.59375 136.140625 C 229.460938 136.34375 229.363281 136.46875 229.304688 136.539062 C 229.242188 136.601562 229.152344 136.726562 229.039062 136.886719 C 228.921875 137.054688 228.859375 137.152344 228.824219 137.179688 L 228.824219 143.429688 Z M 200.539062 132.234375 C 200.558594 132.066406 200.789062 131.964844 201.203125 131.929688 C 204.234375 131.90625 206.179688 132.367188 207.039062 133.324219 C 207.917969 134.273438 208.351562 135.207031 208.351562 136.09375 C 208.316406 136.851562 208.058594 137.53125 207.578125 138.15625 C 207.101562 138.765625 206.421875 139.070312 205.550781 139.070312 C 204.390625 139.105469 203.621094 138.546875 203.230469 137.382812 L 202.949219 135.695312 C 202.683594 134.507812 202.070312 133.566406 201.117188 132.871094 L 200.628906 132.578125 C 200.539062 132.515625 200.496094 132.402344 200.539062 132.234375 M 198.121094 164.519531 L 197.441406 164.324219 C 197.210938 164.289062 197.085938 164.175781 197.085938 163.996094 C 197.058594 163.820312 197.066406 163.714844 197.105469 163.679688 C 197.128906 163.445312 197.324219 163.332031 197.679688 163.332031 L 198.742188 163.4375 C 199.707031 163.527344 200.34375 163.464844 200.65625 163.234375 C 200.957031 163.003906 201.46875 162.019531 202.195312 160.285156 C 202.921875 158.554688 203.992188 155.660156 205.429688 151.613281 C 206.863281 147.574219 207.871094 144.660156 208.464844 142.878906 C 209.058594 141.09375 209.449219 140.011719 209.609375 139.609375 L 209.945312 138.667969 C 210.007812 138.449219 210.15625 138.324219 210.386719 138.324219 C 210.574219 138.359375 210.699219 138.527344 210.769531 138.820312 L 210.476562 139.859375 C 210.351562 140.257812 210.128906 141.191406 209.828125 142.65625 C 209.519531 144.121094 208.730469 147.175781 207.484375 151.789062 C 206.226562 156.414062 205.542969 159.453125 205.429688 160.90625 C 205.320312 162.363281 205.25 163.570312 205.234375 164.546875 C 205.214844 165.515625 205.304688 166.324219 205.5 166.945312 C 205.535156 167.175781 205.835938 168.019531 206.421875 169.476562 C 207.003906 170.929688 207.289062 171.882812 207.289062 172.351562 C 207.253906 172.769531 207.066406 173.347656 206.710938 174.074219 C 206.359375 174.800781 205.550781 175.148438 204.292969 175.121094 C 203.648438 175.121094 203.117188 174.953125 202.675781 174.625 C 202.238281 174.296875 201.964844 173.664062 201.832031 172.742188 L 201.726562 169.875 C 201.664062 169.378906 201.558594 168.78125 201.371094 168.089844 C 201.203125 167.390625 200.894531 166.714844 200.460938 166.058594 C 200.015625 165.390625 199.246094 164.886719 198.121094 164.519531 M 197.828125 143.570312 C 198.183594 143.570312 199.105469 143.773438 200.601562 144.191406 C 202.097656 144.601562 203.109375 145.195312 203.621094 145.976562 C 204.136719 146.757812 204.390625 147.421875 204.390625 147.980469 C 204.367188 148.25 204.207031 148.800781 203.929688 149.640625 C 203.65625 150.484375 202.894531 150.886719 201.636719 150.851562 C 201.1875 150.851562 200.726562 150.707031 200.238281 150.414062 C 199.75 150.113281 199.449219 149.582031 199.316406 148.816406 L 199.230469 147.386719 C 199.097656 146.269531 198.546875 145.292969 197.582031 144.464844 L 197.058594 144.066406 C 197.058594 143.765625 197.316406 143.605469 197.828125 143.570312 M 166.171875 152.179688 L 161.097656 152.179688 L 161.097656 158.574219 L 166.171875 158.574219 Z M 166.171875 150.851562 L 166.171875 144.609375 L 162.300781 144.609375 C 162.105469 144.910156 161.945312 145.089844 161.8125 145.160156 L 161.574219 145.300781 L 161.097656 145.65625 L 161.097656 150.851562 Z M 157.136719 152.179688 L 151.921875 152.179688 L 151.921875 158.574219 L 157.136719 158.574219 Z M 157.136719 150.851562 L 157.136719 144.609375 L 153.179688 144.609375 C 152.753906 145.167969 152.335938 145.539062 151.921875 145.710938 L 151.921875 150.851562 Z M 138.984375 137.230469 C 138.789062 137.195312 138.636719 137.140625 138.523438 137.054688 C 138.417969 136.972656 138.34375 136.761719 138.308594 136.414062 C 138.273438 136.066406 138.503906 135.890625 138.984375 135.890625 L 151.152344 135.890625 L 151.152344 134.265625 L 150.910156 130.34375 C 151.035156 130.28125 151.40625 130.296875 152.019531 130.394531 L 155.152344 131 C 155.675781 131.125 156.023438 131.222656 156.214844 131.265625 C 156.410156 131.320312 156.507812 131.40625 156.480469 131.539062 C 156.472656 131.675781 156.359375 131.824219 156.171875 131.984375 L 155.152344 132.925781 L 155.152344 135.890625 L 162.691406 135.890625 L 162.691406 133.917969 L 162.496094 130.34375 C 162.566406 130.316406 162.972656 130.359375 163.753906 130.492188 L 167.320312 131.148438 C 167.578125 131.210938 167.765625 131.28125 167.871094 131.363281 C 167.984375 131.453125 168.039062 131.523438 168.019531 131.59375 C 168.003906 131.65625 167.90625 131.789062 167.710938 131.984375 L 166.746094 132.925781 L 166.746094 135.890625 L 173.742188 135.890625 L 175.671875 133.273438 C 176.027344 132.773438 176.257812 132.535156 176.355469 132.535156 L 177.417969 133.566406 L 180.261719 136.34375 C 180.515625 136.601562 180.648438 136.761719 180.667969 136.8125 C 180.683594 136.859375 180.710938 136.957031 180.738281 137.082031 C 180.773438 137.214844 180.550781 137.285156 180.066406 137.285156 L 166.746094 137.285156 L 166.746094 138.820312 L 166.835938 140.996094 C 166.746094 141.492188 166.4375 141.910156 165.921875 142.257812 C 165.398438 142.601562 164.78125 142.761719 164.035156 142.726562 C 163.417969 142.726562 163.035156 142.628906 162.847656 142.433594 C 162.679688 142.238281 162.566406 142.007812 162.546875 141.742188 L 162.691406 138.667969 L 162.691406 137.285156 L 155.152344 137.285156 L 155.152344 138.917969 L 155.207031 141.144531 C 155.011719 142.203125 154.101562 142.726562 152.453125 142.726562 C 151.839844 142.761719 151.453125 142.671875 151.292969 142.460938 C 151.125 142.246094 151.035156 141.972656 151 141.632812 L 151.152344 138.667969 L 151.152344 137.285156 L 139.125 137.285156 Z M 140.144531 159.914062 C 139.914062 159.878906 139.761719 159.832031 139.664062 159.761719 C 139.566406 159.699219 139.503906 159.480469 139.488281 159.125 C 139.480469 158.757812 139.691406 158.582031 140.144531 158.582031 L 148.210938 158.582031 L 148.210938 152.179688 L 138.789062 152.179688 L 138.40625 152.039062 C 138.273438 151.90625 138.1875 151.675781 138.132812 151.347656 C 138.089844 151.019531 138.320312 150.851562 138.832031 150.851562 L 148.210938 150.851562 L 148.210938 144.609375 L 141.207031 144.609375 C 140.789062 144.609375 140.542969 144.386719 140.480469 143.941406 C 140.417969 143.5 140.65625 143.277344 141.207031 143.277344 L 172.441406 143.277344 L 173.882812 141.242188 C 174.273438 140.71875 174.519531 140.445312 174.636719 140.425781 C 174.75 140.410156 175.203125 140.738281 176.007812 141.394531 L 178.425781 143.429688 C 178.84375 143.78125 179.054688 144.03125 179.054688 144.164062 C 179.019531 144.464844 178.761719 144.609375 178.277344 144.609375 L 171.183594 144.609375 C 170.925781 145.035156 170.570312 145.417969 170.128906 145.753906 L 170.128906 150.851562 L 175.097656 150.851562 L 176.300781 149.269531 C 176.914062 148.480469 177.285156 148.070312 177.417969 148.054688 C 177.542969 148.035156 178.011719 148.335938 178.816406 148.96875 L 181.3125 151.046875 C 181.480469 151.214844 181.648438 151.445312 181.808594 151.738281 C 181.960938 152.039062 181.675781 152.179688 180.933594 152.179688 L 170.128906 152.179688 L 170.128906 158.582031 L 172.828125 158.582031 L 174.273438 156.746094 C 174.761719 156.148438 175.015625 155.847656 175.042969 155.832031 C 175.078125 155.8125 175.496094 156.113281 176.300781 156.746094 L 178.914062 158.875 C 179.234375 159.167969 179.390625 159.398438 179.390625 159.566406 C 179.355469 159.796875 179.171875 159.914062 178.816406 159.914062 L 161.097656 159.914062 L 161.097656 165.070312 L 174.707031 165.070312 L 176.007812 163.332031 C 176.601562 162.542969 176.949219 162.132812 177.0625 162.117188 C 177.203125 162.105469 177.648438 162.425781 178.425781 163.082031 L 180.738281 165.160156 C 181.003906 165.425781 181.226562 165.710938 181.421875 166.003906 C 181.613281 166.304688 181.421875 166.457031 180.84375 166.457031 L 161.097656 166.457031 L 161.097656 171.703125 L 161.238281 174.96875 C 160.953125 175.992188 159.804688 176.410156 157.808594 176.214844 C 157.261719 176.179688 156.960938 175.929688 156.898438 175.46875 L 157.136719 171.152344 L 157.136719 166.457031 L 139.027344 166.457031 L 138.789062 166.402344 C 138.628906 166.367188 138.503906 166.324219 138.40625 166.253906 C 138.308594 166.179688 138.230469 165.96875 138.1875 165.613281 C 138.132812 165.25 138.378906 165.070312 138.929688 165.070312 L 157.136719 165.070312 L 157.136719 159.914062 Z M 115.675781 163.289062 L 106.5 163.289062 L 106.5 170.761719 L 115.675781 170.761719 Z M 115.675781 156.097656 L 106.5 156.097656 L 106.5 161.9375 L 115.675781 161.9375 Z M 115.433594 154.765625 L 116.640625 153.140625 L 117.171875 152.386719 C 117.269531 152.386719 117.507812 152.519531 117.898438 152.785156 L 120.980469 154.960938 C 121.269531 155.191406 121.429688 155.339844 121.476562 155.414062 L 121.476562 155.554688 C 121.476562 155.589844 121.324219 155.757812 121.03125 156.050781 L 119.925781 157.199219 L 119.925781 169.183594 L 120.066406 173.089844 C 119.90625 174.046875 119.136719 174.535156 117.753906 174.570312 C 116.367188 174.605469 115.675781 174.339844 115.675781 173.78125 L 115.675781 172.09375 L 106.5 172.09375 L 106.5 173.738281 C 106.5 174.199219 106.347656 174.527344 106.046875 174.722656 C 105.730469 174.917969 105.402344 175.050781 105.054688 175.121094 C 104.695312 175.183594 104.242188 175.226562 103.675781 175.246094 C 103.117188 175.253906 102.773438 175.164062 102.636719 174.96875 C 102.507812 174.765625 102.445312 174.535156 102.445312 174.277344 L 102.636719 170.125 L 102.636719 157.199219 L 102.445312 153.238281 C 102.601562 153.097656 102.894531 153.121094 103.3125 153.28125 L 106.5 154.765625 Z M 108.484375 141.394531 L 92.214844 141.394531 L 92.214844 147.785156 L 108.484375 147.785156 Z M 108.484375 134.957031 L 92.214844 134.957031 L 92.214844 140.011719 L 108.484375 140.011719 Z M 108.484375 149.164062 L 92.214844 149.164062 L 92.214844 150.308594 C 92.214844 150.566406 92.011719 150.894531 91.605469 151.277344 C 91.207031 151.648438 90.390625 151.824219 89.167969 151.789062 C 88.558594 151.789062 88.1875 151.703125 88.054688 151.515625 C 87.929688 151.339844 87.847656 151.097656 87.8125 150.804688 L 88.019531 146.75 L 88.019531 135.945312 L 87.8125 131.734375 C 87.886719 131.675781 87.945312 131.628906 88.019531 131.59375 L 88.488281 131.832031 L 92.214844 133.566406 L 108.191406 133.566406 L 109.308594 132.234375 C 109.6875 131.769531 109.925781 131.53125 109.996094 131.515625 C 110.078125 131.496094 110.300781 131.613281 110.652344 131.832031 L 113.257812 133.714844 C 113.378906 133.8125 113.566406 133.980469 113.789062 134.214844 C 114.019531 134.445312 114.132812 134.59375 114.152344 134.683594 C 114.167969 134.761719 114.117188 134.851562 113.984375 134.957031 L 112.734375 135.890625 L 112.734375 145.851562 L 112.921875 149.714844 C 112.859375 150.042969 112.714844 150.398438 112.511719 150.777344 C 112.300781 151.152344 111.582031 151.363281 110.335938 151.390625 C 109.101562 151.425781 108.484375 151.230469 108.484375 150.804688 Z M 85.308594 170.664062 L 93.953125 170.664062 L 93.953125 163.191406 L 85.308594 163.191406 Z M 93.953125 156.097656 L 85.265625 156.097656 L 85.265625 161.839844 L 93.953125 161.839844 Z M 93.953125 171.996094 L 85.308594 171.996094 L 85.253906 173.738281 C 85.226562 174.75 84.636719 175.273438 83.476562 175.289062 C 82.316406 175.308594 81.675781 175.253906 81.542969 175.140625 C 81.410156 175.023438 81.3125 174.835938 81.253906 174.570312 L 81.445312 170.460938 L 81.445312 157.683594 L 81.253906 152.828125 C 81.347656 152.765625 81.625 152.828125 82.066406 153.035156 L 85.308594 154.71875 L 93.710938 154.71875 L 95.058594 153.085938 C 95.351562 152.75 95.519531 152.582031 95.5625 152.554688 C 95.617188 152.535156 95.785156 152.632812 96.066406 152.828125 L 99.210938 155.066406 C 99.46875 155.296875 99.59375 155.457031 99.574219 155.554688 C 99.558594 155.660156 99.46875 155.777344 99.308594 155.902344 L 98.148438 156.941406 L 98.148438 169.378906 L 98.34375 173.089844 C 98.113281 173.941406 97.335938 174.410156 95.980469 174.472656 C 94.625 174.535156 93.953125 174.261719 93.953125 173.640625 Z M 359.21875 10.421875 C 359.21875 10.421875 353.347656 11.050781 351.574219 11.050781 C 351.574219 11.859375 348.007812 18.3125 347.464844 19.132812 C 346.953125 19.523438 346.058594 22.558594 336.8125 22.558594 L 336.09375 24.785156 L 344.800781 24.785156 C 344.800781 25.789062 324.910156 66.003906 324.910156 71.253906 C 324.910156 72.449219 325.265625 75.476562 330.242188 75.476562 C 337.867188 75.476562 348.007812 68.617188 348.359375 68.207031 L 347.128906 66.601562 C 346.953125 66.8125 340.195312 70.433594 336.8125 70.433594 C 336.457031 70.433594 334.15625 70.628906 334.15625 67.613281 C 334.15625 62.96875 353.160156 24.785156 353.160156 24.785156 L 362.769531 24.785156 L 364 22.160156 L 354.410156 22.160156 Z M 277.636719 25.789062 L 277.976562 28.222656 C 277.976562 28.222656 280.472656 27.210938 282.605469 27.210938 C 283.316406 27.210938 285.273438 27.609375 285.273438 29.632812 C 285.273438 35.289062 266.257812 73.460938 266.257812 74.289062 L 275.691406 71.253906 C 283.136719 51.242188 308.199219 27.210938 314.78125 27.210938 C 315.664062 27.210938 316.207031 27.609375 316.207031 28.433594 C 316.207031 32.457031 299.839844 53.675781 296.464844 74.085938 C 302.867188 74.085938 314.78125 67.613281 316.011719 66.191406 L 314.78125 64.585938 C 314.78125 64.585938 311.226562 66.40625 309.085938 66.40625 C 308.546875 66.40625 307.121094 66.601562 307.121094 64.78125 C 307.121094 58.308594 326.683594 32.457031 326.683594 23.570312 C 326.683594 21.546875 325.617188 20.144531 322.945312 20.144531 C 311.226562 20.144531 287.40625 45.800781 287.042969 45.800781 C 287.40625 45.605469 295.933594 27.8125 295.933594 21.351562 C 295.933594 21.351562 296.113281 19.929688 295.933594 19.929688 C 295.234375 20.757812 279.417969 25.789062 277.636719 25.789062 M 185.75 62.96875 C 185.75 59.132812 217.5625 45.402344 217.5625 33.886719 C 217.5625 30.042969 213.824219 28.433594 213.824219 28.433594 C 213.824219 32.457031 206.722656 49.652344 195.339844 49.652344 C 191.78125 49.652344 189.488281 47.40625 189.488281 42.957031 C 189.488281 38.734375 198.167969 25.382812 224.496094 25.382812 C 227.878906 25.382812 229.089844 25.59375 229.089844 25.59375 C 229.089844 26.199219 226.097656 32.046875 226.097656 35.902344 L 228.578125 36.105469 C 228.578125 34.890625 236.574219 19.929688 237.121094 19.328125 C 237.121094 19.328125 235.511719 19.132812 231.605469 19.132812 C 198.890625 19.132812 181.660156 41.554688 181.660156 49.652344 C 181.660156 55.09375 185.917969 55.902344 189.117188 55.902344 C 188.601562 56.507812 172.050781 67.613281 172.050781 67.613281 C 172.050781 67.613281 191.59375 73.460938 190.90625 74.085938 C 190.71875 74.476562 157.484375 82.347656 157.484375 96.304688 C 157.484375 102.351562 163.886719 109.433594 187.34375 109.433594 C 199.964844 109.433594 228.941406 104.800781 228.941406 87.417969 C 228.941406 73.265625 185.75 66.40625 185.75 62.96875 M 191.59375 106.007812 C 175.964844 106.007812 165.664062 100.957031 165.664062 93.480469 C 165.664062 79.527344 198.167969 76.695312 199.796875 76.695312 C 200.132812 76.695312 220.765625 82.757812 220.765625 91.652344 C 220.765625 98.320312 212.40625 106.007812 191.59375 106.007812 M 267.320312 18.925781 C 249.371094 18.925781 223.253906 41.957031 223.253906 64.78125 C 223.253906 68.207031 224.496094 73.871094 231.605469 73.871094 C 243.144531 73.871094 263.59375 56.292969 263.59375 48.214844 C 263.59375 46.617188 263.246094 44.984375 262.511719 44.378906 C 262.511719 44.984375 251.496094 68.207031 237.636719 68.207031 C 232.84375 68.207031 231.78125 63.582031 231.78125 60.953125 C 231.78125 49.839844 244.746094 23.976562 259.863281 23.976562 C 264.480469 23.976562 264.480469 26.402344 264.480469 27.015625 C 264.480469 30.433594 256.128906 38.734375 245.457031 38.734375 C 243.320312 38.734375 241.550781 38.519531 241.195312 38.113281 C 241.195312 39.125 241.914062 41.554688 246.164062 41.554688 C 255.933594 41.554688 272.660156 30.832031 272.660156 22.753906 C 272.660156 19.929688 270.695312 18.925781 267.320312 18.925781 M 178.445312 19.523438 C 160.503906 19.523438 134.378906 42.363281 134.378906 65.394531 C 134.378906 68.828125 135.617188 74.476562 142.71875 74.476562 C 154.285156 74.476562 174.714844 56.703125 174.714844 48.816406 C 174.714844 47.210938 174.371094 45.605469 173.644531 44.984375 C 173.644531 45.605469 162.476562 68.828125 148.601562 68.828125 C 143.96875 68.828125 142.71875 64.175781 142.71875 61.550781 C 142.71875 50.441406 155.878906 24.582031 170.988281 24.582031 C 175.621094 24.582031 175.621094 27.015625 175.621094 27.609375 C 175.621094 31.046875 167.25 39.125 156.597656 39.125 C 154.285156 39.125 152.503906 39.125 152.152344 38.734375 C 152.152344 39.53125 152.867188 42.152344 157.304688 42.152344 C 166.894531 42.152344 183.785156 31.453125 183.785156 23.382812 C 183.785156 20.542969 181.835938 19.523438 178.445312 19.523438 M 152.503906 78.71875 C 152.503906 80.140625 151.984375 86.804688 143.082031 86.804688 C 128.691406 86.804688 117.3125 70.238281 97.058594 49.429688 L 99.007812 45.800781 L 117.144531 45.800781 C 117.144531 36.691406 143.277344 37.117188 143.277344 19.929688 C 143.277344 5.386719 123.53125 1.738281 101.140625 1.738281 C 44.074219 1.738281 0 26.808594 0 61.753906 C 0 70.628906 6.386719 92.859375 35.371094 92.859375 C 72.34375 92.859375 93.324219 59.328125 93.324219 58.105469 C 107.898438 73.265625 123.882812 90.039062 140.054688 90.039062 C 150.371094 90.039062 154.640625 84.78125 154.640625 81.746094 C 154.640625 79.738281 152.867188 78.71875 152.503906 78.71875 M 92.25 44.984375 C 92.074219 44.789062 83.722656 38.734375 68.96875 38.734375 C 52.796875 38.734375 49.40625 45.605469 49.40625 47.609375 C 49.40625 49.234375 51.195312 50.042969 51.195312 50.042969 C 51.195312 49.652344 54.390625 41.359375 66.667969 41.359375 C 80.171875 41.359375 88.511719 53.46875 88.511719 53.46875 C 88.511719 53.46875 76.265625 88.011719 41.234375 88.011719 C 27.1875 88.011719 9.238281 79.738281 9.238281 60.136719 C 9.238281 29.03125 43.367188 5.386719 94.03125 5.386719 C 103.265625 5.386719 133.847656 5.59375 133.847656 21.144531 C 133.847656 32.863281 121.574219 38.324219 108.777344 38.324219 L 102.382812 38.324219 C 102.746094 37.90625 108.421875 18.925781 108.421875 16.707031 L 88.167969 21.351562 L 88.875 23.765625 C 89.238281 23.765625 91.71875 23.382812 92.789062 23.382812 C 93.675781 23.382812 97.769531 23.171875 97.769531 27.609375 C 97.769531 31.242188 93.5 43.785156 92.25 44.984375 "/>
</g>
</svg>
